HIERARCHY
ROOT hip
{
  OFFSET 0 0 0
  CHANNELS 6 Xposition Yposition Zposition Zrotation Yrotation Xrotation
  JOINT abdomen
  {
    OFFSET 0 20.6881 -0.73152
    CHANNELS 3 Zrotation Xrotation Yrotation
    JOINT chest
    {
      OFFSET 0 11.7043 -0.48768
      CHANNELS 3 Zrotation Xrotation Yrotation
      JOINT neck
      {
        OFFSET 0 22.1894 -2.19456
        CHANNELS 3 Zrotation Xrotation Yrotation
        JOINT head
        {
          OFFSET -0.24384 7.07133 1.2192
          CHANNELS 3 Zrotation Xrotation Yrotation
          JOINT leftEye
          {
            OFFSET 4.14528 8.04674 8.04672
            CHANNELS 3 Zrotation Xrotation Yrotation
            End Site
            {
              OFFSET 1 0 0
            }
          }
          JOINT rightEye
          {
            OFFSET -3.6576 8.04674 8.04672
            CHANNELS 3 Zrotation Xrotation Yrotation
            End Site
            {
              OFFSET 1 0 0
            }
          }
        }
      }
      JOINT rCollar
      {
        OFFSET -2.68224 19.2634 -4.8768
        CHANNELS 3 Zrotation Xrotation Yrotation
        JOINT rShldr
        {
          OFFSET -8.77824 -1.95073 1.46304
          CHANNELS 3 Zrotation Xrotation Yrotation
          JOINT rForeArm
          {
            OFFSET -28.1742 -1.7115 0.48768
            CHANNELS 3 Zrotation Xrotation Yrotation
            JOINT rHand
            {
              OFFSET -22.5879 0.773209 7.07136
              CHANNELS 3 Zrotation Xrotation Yrotation
              JOINT rThumb1
              {
                OFFSET -1.2192 -0.487915 3.41376
                CHANNELS 3 Zrotation Xrotation Yrotation
                JOINT rThumb2
                {
                  OFFSET -3.37035 -0.52449 3.41376
                  CHANNELS 3 Zrotation Xrotation Yrotation
                  End Site
                  {
                    OFFSET -1.78271 -1.18214 1.43049
                  }
                }
              }
              JOINT rIndex1
              {
                OFFSET -7.75947 0.938293 5.60832
                CHANNELS 3 Zrotation Xrotation Yrotation
                JOINT rIndex2
                {
                  OFFSET -2.54057 -0.884171 1.56538
                  CHANNELS 3 Zrotation Xrotation Yrotation
                  End Site
                  {
                    OFFSET -1.62519 -0.234802 1.16502
                  }
                }
              }
              JOINT rMid1
              {
                OFFSET -8.24714 1.18213 3.41376
                CHANNELS 3 Zrotation Xrotation Yrotation
                JOINT rMid2
                {
                  OFFSET -3.10165 -0.590103 1.0647
                  CHANNELS 3 Zrotation Xrotation Yrotation
                  End Site
                  {
                    OFFSET -2.48547 -0.328903 0.83742
                  }
                }
              }
              JOINT rRing1
              {
                OFFSET -8.82822 0.546677 1.51678
                CHANNELS 3 Zrotation Xrotation Yrotation
                JOINT rRing2
                {
                  OFFSET -2.60934 -0.819778 -0.0198488
                  CHANNELS 3 Zrotation Xrotation Yrotation
                  End Site
                  {
                    OFFSET -2.33842 -0.294052 0.168128
                  }
                }
              }
              JOINT rPinky1
              {
                OFFSET -8.27202 -0.0477905 -0.4584
                CHANNELS 3 Zrotation Xrotation Yrotation
                JOINT rPinky2
                {
                  OFFSET -1.82734 -0.647385 -0.700984
                  CHANNELS 3 Zrotation Xrotation Yrotation
                  End Site
                  {
                    OFFSET -1.69225 -0.51767 -0.607171
                  }
                }
              }
            }
          }
        }
      }
      JOINT lCollar
      {
        OFFSET 2.68224 19.2634 -4.8768
        CHANNELS 3 Zrotation Xrotation Yrotation
        JOINT lShldr
        {
          OFFSET 8.77824 -1.95073 1.46304
          CHANNELS 3 Zrotation Xrotation Yrotation
          JOINT lForeArm
          {
            OFFSET 28.1742 -1.7115 0.48768
            CHANNELS 3 Zrotation Xrotation Yrotation
            JOINT lHand
            {
              OFFSET 22.5879 0.773209 7.07136
              CHANNELS 3 Zrotation Xrotation Yrotation
              JOINT lThumb1
              {
                OFFSET 1.2192 -0.487915 3.41376
                CHANNELS 3 Zrotation Xrotation Yrotation
                JOINT lThumb2
                {
                  OFFSET 3.37035 -0.52449 3.41376
                  CHANNELS 3 Zrotation Xrotation Yrotation
                  End Site
                  {
                    OFFSET 1.78271 -1.18214 1.43049
                  }
                }
              }
              JOINT lIndex1
              {
                OFFSET 7.75947 0.938293 5.60832
                CHANNELS 3 Zrotation Xrotation Yrotation
                JOINT lIndex2
                {
                  OFFSET 2.54057 -0.884171 1.56538
                  CHANNELS 3 Zrotation Xrotation Yrotation
                  End Site
                  {
                    OFFSET 1.62519 -0.234802 1.16502
                  }
                }
              }
              JOINT lMid1
              {
                OFFSET 8.24714 1.18213 3.41376
                CHANNELS 3 Zrotation Xrotation Yrotation
                JOINT lMid2
                {
                  OFFSET 3.10165 -0.590103 1.0647
                  CHANNELS 3 Zrotation Xrotation Yrotation
                  End Site
                  {
                    OFFSET 2.48547 -0.328903 0.83742
                  }
                }
              }
              JOINT lRing1
              {
                OFFSET 8.82822 0.546677 1.51678
                CHANNELS 3 Zrotation Xrotation Yrotation
                JOINT lRing2
                {
                  OFFSET 2.60934 -0.819778 -0.0198488
                  CHANNELS 3 Zrotation Xrotation Yrotation
                  End Site
                  {
                    OFFSET 2.33842 -0.294052 0.168128
                  }
                }
              }
              JOINT lPinky1
              {
                OFFSET 8.27202 -0.0477905 -0.4584
                CHANNELS 3 Zrotation Xrotation Yrotation
                JOINT lPinky2
                {
                  OFFSET 1.82734 -0.647385 -0.700984
                  CHANNELS 3 Zrotation Xrotation Yrotation
                  End Site
                  {
                    OFFSET 1.69225 -0.51767 -0.607171
                  }
                }
              }
            }
          }
        }
      }
    }
  }
  JOINT rButtock
  {
    OFFSET -8.77824 4.35084 1.2192
    CHANNELS 3 Zrotation Xrotation Yrotation
    JOINT rThigh
    {
      OFFSET 0 -1.70687 -2.19456
      CHANNELS 3 Zrotation Xrotation Yrotation
      JOINT rShin
      {
        OFFSET 0 -36.8199 0.73152
        CHANNELS 3 Zrotation Xrotation Yrotation
        JOINT rFoot
        {
          OFFSET 0.73152 -45.1104 -5.12064
          CHANNELS 3 Zrotation Xrotation Yrotation
          End Site
          {
            OFFSET -1.1221 -3.69964 12.103
          }
        }
      }
    }
  }
  JOINT lButtock
  {
    OFFSET 8.77824 4.35084 1.2192
    CHANNELS 3 Zrotation Xrotation Yrotation
    JOINT lThigh
    {
      OFFSET 0 -1.70687 -2.19456
      CHANNELS 3 Zrotation Xrotation Yrotation
      JOINT lShin
      {
        OFFSET 0 -36.8199 0.73152
        CHANNELS 3 Zrotation Xrotation Yrotation
        JOINT lFoot
        {
          OFFSET -0.73152 -45.1104 -5.12064
          CHANNELS 3 Zrotation Xrotation Yrotation
          End Site
          {
            OFFSET 1.1221 -3.69964 12.103
          }
        }
      }
    }
  }
}
MOTION
Frames:	4
Frame Time:	0.03333
7.132099999999999 60.3236 12.9937 6.878697 67.122502 10.629228 -7.033698 18.870278 -132.066556 10.396459 11.558923 132.038067 17.604998 29.458965 135.258205 -11.838488 44.172621 -169.257655 -12.809256 0.136093 -1.212372 -140.572209 -2.687682 -7.491359 -38.124867 70.279713 42.255621 70.384354 -36.01637 65.238297 15.112745 -23.666494 87.004804 -12.588441 27.876647 6.821683 -1.598788 28.628954 -0.10952 -161.459443 -48.352508 126.981952 -93.940792 48.024501 82.220907 146.074304 -22.500588 95.073986 -15.649455 72.718061 26.346994 155.842831 -35.949944 -141.023927 31.269844 -23.952356 -1.510839 11.24123 10.694921 -22.105626 -160.77142 68.883628 -147.193552 158.808009 12.81898 -75.336889 135.922397 43.706116 -136.81836 170.241018 40.722427 -109.822109 109.175847 64.442221 144.023388 -4.154392 -21.830107 6.660089 13.156656 14.423879 -8.419644 7.120763 -5.737953 4.27686 -5.414635 -24.779624 5.316785 -10.016443 21.15783 -12.676089 163.770173 -24.016851 -150.110069 66.97767 65.943875 -78.139248 60.544413 -53.869964 56.929624 -71.09618 28.3665 37.247017 139.93472 23.433736 138.81674 69.391989 58.130648 -119.846155 1.694123 2.196079 5.173736 -82.071101 -58.464038 -165.255893 -90.305059 -11.683334 4.826134 136.603976 56.10244 -44.842692 -41.613762 19.98675 -10.937732 73.088067 -15.981896 158.67301 61.237711 -26.45993 -116.688927 -175.103689 -18.639278 -47.356774
7.2797 60.1294 13.2037 7.118926 68.270983 10.680446 -9.852411 23.28455 26.715697 -4.845903 -19.404517 -25.615265 1.42909 30.459358 -125.56951 38.50397 16.320016 83.556288 -14.711761 0.109576 -0.848794 -141.305361 -2.709816 -7.707378 -153.331739 -7.764396 168.922103 -32.288706 -10.467241 -2.677567 163.416938 7.368534 -96.061566 -17.374923 36.987995 9.779193 178.473294 -46.536445 89.171558 11.182631 -39.207632 18.903197 -167.909443 -65.495772 128.88749 -4.725235 -77.409549 -62.548086 4.953031 64.247503 5.333296 -50.00737 61.292422 -55.559342 28.62086 12.894602 10.374851 26.902344 17.515027 -20.046281 -23.784195 -36.052854 -27.418008 -41.462057 17.089655 85.477155 124.824056 52.449153 -125.965709 89.891586 23.587816 -61.94603 8.047087 6.725569 133.00594 -175.250998 -13.374412 -137.628759 170.2232 -14.062256 -85.994225 -17.426724 -42.283895 -18.517392 174.349629 -45.49345 -124.449707 14.319716 77.21794 -12.383146 -27.544901 -81.259449 2.385884 153.24952 -2.770445 -124.266389 21.759509 83.026995 -19.397448 101.45831 37.202004 -87.265208 -21.741283 26.662827 -0.793911 -52.651844 27.966797 31.926194 -9.998359 3.509568 -3.288976 -70.445489 -67.076557 174.277517 -89.041175 -19.736347 177.686967 -159.242874 16.080705 88.223195 179.951302 56.966025 -6.256857 -149.421184 32.3471 22.25475 51.259703 52.513794 -140.711207 69.581773 -50.749996 141.080586
7.346800000000001 60.761900000000004 13.049900000000001 6.01909 58.315679 11.516864 -13.148889 19.676383 61.195981 -13.058497 -16.148782 -62.496934 3.116348 17.970901 1.367319 -8.774388 -24.556079 -33.713513 4.689064 -0.132062 -3.22469 -171.106347 2.07548 26.223465 -5.591244 30.374728 3.902971 -99.158217 31.579149 137.031247 -171.468861 -13.759046 -100.861005 -2.731187 15.226114 1.61268 30.743001 -16.506351 -9.805892 123.95375 -55.034155 71.760658 -162.44684 -25.645386 130.561578 -8.016479 31.54576 -54.050836 -158.681544 -14.062875 152.057348 36.769087 -16.498192 177.745517 -116.905043 4.119704 167.538235 -95.509467 43.499503 96.898149 22.124822 43.678421 17.340319 177.815262 -43.567056 -79.11869 -4.213323 -57.701295 6.076129 -66.721523 5.843002 37.729086 42.433152 21.897023 -128.589955 -11.465659 -36.838582 3.987182 161.325337 5.952011 -89.214522 -63.401542 -64.255782 -51.480056 -15.538151 -22.151813 -6.868115 23.538881 72.245471 -10.031625 -5.352066 -46.271917 9.003888 174.173183 0.731175 -136.735555 126.546788 74.985194 -122.051264 104.71071 34.525073 -91.397357 -20.974041 24.587733 -8.268931 0.979923 -5.869467 49.41914 -37.217077 3.112323 -22.476008 26.298593 -76.432167 164.710804 98.495516 -67.255394 -164.133942 22.184417 -62.065372 112.008464 -46.578558 15.769704 -18.715738 75.587974 -5.994196 -29.567413 -64.937139 16.360452 57.094126 111.055977 32.307608 -15.011159
7.1434999999999995 60.4908 12.6129 6.323082 51.669043 12.961589 -13.229749 14.419294 -155.426606 -1.495807 17.555259 156.471432 13.305437 27.880814 86.854136 -33.604909 16.719536 -115.043563 14.257287 0.704485 5.62852 178.500432 -0.556092 40.691224 -118.600502 67.373937 119.912182 -126.628573 31.589067 107.093541 -56.806729 -37.521827 -160.93168 135.896093 -55.282296 117.400293 -8.164861 26.38896 3.065474 -166.724615 -7.218571 97.267355 -7.450609 -20.156771 -14.158276 70.640447 39.710142 7.664942 -171.212131 -35.935208 154.031346 136.575021 -76.708875 -87.113598 30.883572 -22.589827 12.587219 122.776076 43.602962 -106.022381 -1.483551 -36.652716 -13.127705 -59.32422 -3.801873 75.907321 0.824495 -11.900272 -0.875241 2.080549 76.670766 -83.222257 -45.756871 -26.375928 -126.837367 23.891104 55.52851 -0.752962 10.134568 -5.130288 -1.920083 -0.892306 9.469412 -9.515428 -45.334843 -54.153206 -16.630912 -4.102162 17.367252 36.1636 90.956427 62.957552 -71.150515 -1.774565 41.33362 -8.065419 170.058254 -49.56564 174.048179 -125.197408 47.636228 130.340865 -5.411888 29.295508 -26.482344 -36.991595 -21.336277 36.211898 -32.295642 -0.182971 -20.893568 26.571653 -76.307641 10.184211 97.845537 76.63265 -10.009908 -15.921801 -9.485098 -87.934628 -132.096617 58.39668 -34.942379 170.089821 41.742437 85.076235 79.961969 17.772796 106.630616 -85.929228 4.880369 -163.887643
